{
    "asset" : {
        "generator" : "Khronos glTF Blender I/O v0.9.35",
        "version" : "2.0"
    },
    "scene" : 0,
    "scenes" : [
        {
            "name" : "Scene",
            "nodes" : [
                1
            ]
        }
    ],
    "nodes" : [
        {
            "mesh" : 0,
            "name" : "Torus Knot.001",
            "rotation" : [
                -0.4988820552825928,
                0,
                0,
                0.8666700124740601
            ],
            "scale" : [
                1.0577350854873657,
                1.0577349662780762,
                1.0577349662780762
            ],
            "translation" : [
                0.07119939476251602,
                0,
                0
            ]
        },
        {
            "children" : [
                0
            ],
            "mesh" : 1,
            "name" : "BoundingBox",
            "scale" : [
                0.9454163312911987,
                0.9454163908958435,
                0.9454163312911987
            ]
        }
    ],
    "materials" : [
        {
            "doubleSided" : true,
            "emissiveFactor" : [
                1,
                0,
                0
            ],
            "name" : "RedTorus",
            "pbrMetallicRoughness" : {
                "baseColorFactor" : [
                    1,
                    0,
                    0,
                    1
                ],
                "metallicFactor" : 0,
                "roughnessFactor" : 0.5
            }
        },
        {
            "alphaMode" : "BLEND",
            "doubleSided" : true,
            "emissiveFactor" : [
                0,
                0.5,
                1
            ],
            "name" : "Glow",
            "pbrMetallicRoughness" : {}
        },
        {
            "alphaMode" : "BLEND",
            "doubleSided" : true,
            "name" : "Semitransparent",
            "pbrMetallicRoughness" : {
                "baseColorFactor" : [
                    0,
                    0,
                    1,
                    0.10000000149011612
                ],
                "metallicFactor" : 0,
                "roughnessFactor" : 0.5
            }
        }
    ],
    "meshes" : [
        {
            "name" : "Torus Knot.001",
            "primitives" : [
                {
                    "attributes" : {
                        "POSITION" : 0,
                        "NORMAL" : 1
                    },
                    "indices" : 2,
                    "material" : 0
                }
            ]
        },
        {
            "name" : "Cube",
            "primitives" : [
                {
                    "attributes" : {
                        "POSITION" : 3,
                        "NORMAL" : 4
                    },
                    "indices" : 5,
                    "material" : 1
                },
                {
                    "attributes" : {
                        "POSITION" : 6,
                        "NORMAL" : 7
                    },
                    "indices" : 8,
                    "material" : 2
                }
            ]
        }
    ],
    "accessors" : [
        {
            "bufferView" : 0,
            "componentType" : 5126,
            "count" : 10240,
            "max" : [
                0.37694159150123596,
                0.4781424403190613,
                0.21652182936668396
            ],
            "min" : [
                -0.5179309844970703,
                -0.4780330955982208,
                -0.21638475358486176
            ],
            "type" : "VEC3"
        },
        {
            "bufferView" : 1,
            "componentType" : 5126,
            "count" : 10240,
            "type" : "VEC3"
        },
        {
            "bufferView" : 2,
            "componentType" : 5123,
            "count" : 61440,
            "type" : "SCALAR"
        },
        {
            "bufferView" : 3,
            "componentType" : 5126,
            "count" : 171,
            "max" : [
                0.5288675427436829,
                0.5288674235343933,
                0.5288675427436829
            ],
            "min" : [
                -0.5288675427436829,
                -0.5288675427436829,
                -0.5288675427436829
            ],
            "type" : "VEC3"
        },
        {
            "bufferView" : 4,
            "componentType" : 5126,
            "count" : 171,
            "type" : "VEC3"
        },
        {
            "bufferView" : 5,
            "componentType" : 5123,
            "count" : 792,
            "type" : "SCALAR"
        },
        {
            "bufferView" : 6,
            "componentType" : 5126,
            "count" : 20,
            "max" : [
                0.5000000596046448,
                0.5000000596046448,
                0.5000000596046448
            ],
            "min" : [
                -0.5000000596046448,
                -0.5000000596046448,
                -0.5000000596046448
            ],
            "type" : "VEC3"
        },
        {
            "bufferView" : 7,
            "componentType" : 5126,
            "count" : 20,
            "type" : "VEC3"
        },
        {
            "bufferView" : 8,
            "componentType" : 5123,
            "count" : 36,
            "type" : "SCALAR"
        }
    ],
    "bufferViews" : [
        {
            "buffer" : 0,
            "byteLength" : 122880,
            "byteOffset" : 0
        },
        {
            "buffer" : 0,
            "byteLength" : 122880,
            "byteOffset" : 122880
        },
        {
            "buffer" : 0,
            "byteLength" : 122880,
            "byteOffset" : 245760
        },
        {
            "buffer" : 0,
            "byteLength" : 2052,
            "byteOffset" : 368640
        },
        {
            "buffer" : 0,
            "byteLength" : 2052,
            "byteOffset" : 370692
        },
        {
            "buffer" : 0,
            "byteLength" : 1584,
            "byteOffset" : 372744
        },
        {
            "buffer" : 0,
            "byteLength" : 240,
            "byteOffset" : 374328
        },
        {
            "buffer" : 0,
            "byteLength" : 240,
            "byteOffset" : 374568
        },
        {
            "buffer" : 0,
            "byteLength" : 72,
            "byteOffset" : 374808
        }
    ],
    "buffers" : [
        {
            "byteLength" : 374880,
            "uri" : "data:application/octet-stream;base64,"
        }
    ]
}
